<svg xmlns="http://www.w3.org/2000/svg">
  <symbol id="user" viewBox="0 0 14 15">
    <path fill="currentColor" d="M11.803 11.755c.273 1.158.366 2.431.366 3.245h.956c0-.271-.01-.59-.031-.938a15.652 15.652 0 00-.363-2.545c-.149-.627-.351-1.248-.627-1.774-.274-.522-.643-.992-1.141-1.257-.405-.216-.688-.37-.88-.477v-.487a1.88 1.88 0 00.224-.235c.154-.188.305-.43.438-.705a4.79 4.79 0 00.479-2.037C11.224 2.62 9.52 0 6.562 0c-2.958 0-4.66 2.62-4.66 4.545 0 .768.214 1.49.478 2.037.133.275.284.517.438.705.062.077.138.16.224.235v.487a54 54 0 01-.88.477c-.498.265-.866.735-1.14 1.257-.277.526-.48 1.146-.628 1.774a15.66 15.66 0 00-.363 2.546C.01 14.41 0 14.727 0 15h.956c0-.814.093-2.087.366-3.245.137-.578.315-1.109.538-1.533.225-.428.475-.709.737-.848a18.198 18.198 0 001.368-.804l.033-.021V6.867l-.327-.097-.005-.005a.812.812 0 01-.12-.124 2.63 2.63 0 01-.312-.507 3.757 3.757 0 01-.376-1.589C2.858 3.1 4.198.997 6.562.997c2.366 0 3.705 2.102 3.705 3.548 0 .582-.165 1.152-.376 1.589a2.63 2.63 0 01-.312.507.81.81 0 01-.12.124l-.005.005-.327.097v1.456l.003.247s.643.402 1.398.804c.262.14.512.42.737.848.223.424.4.955.537 1.533z"/>
  </symbol>

  <symbol id="bag" viewBox="0 0 13 13">
    <path fill="currentColor" fill-rule="evenodd" clip-rule="evenodd" d="M3.25 4.03227V6.03012L4.0625 6.03063V4.03278L8.91302 4.03227V6.03012H9.74489V4.03227H12.1333V12.2099H0.866667V4.03227H3.25ZM9.74489 3.24269L13 3.24218V13H0V3.24218H3.25C3.36768 1.67208 4.78977 0 6.4001 0C8.02681 0 9.58622 1.63637 9.74489 3.24269ZM8.91302 3.24218C8.77526 2.08635 7.58004 0.790087 6.4001 0.790087C5.11886 0.790087 4.16287 2.08438 4.0625 3.24218H8.91302Z"/>
  </symbol>

  <symbol id="find" viewBox="0 0 14 14">
    <path fill="currentColor" fill-rule="evenodd" d="M5.394 0a5.394 5.394 0 013.692 9.325L13.16 13.5l-.673.5-4.049-4.153A5.394 5.394 0 115.394 0zm0 9.958a4.564 4.564 0 100-9.128 4.564 4.564 0 000 9.128z"/>
  </symbol>

  <symbol id="favorite" xmlns="http://www.w3.org/2000/svg" viewBox="0 0 14 18">
    <path fill="currentColor" fill-rule="evenodd" d="M.5 0h13v17.482l-6.487-4.364L.5 17.482V0Zm1 1v14.518l5.513-3.636 5.487 3.636V1h-11Z" clip-rule="evenodd"/>
  </symbol>

  <symbol id="plus" xmlns="http://www.w3.org/2000/svg" fill="none" viewBox="0 0 10 10">
      <path fill="currentColor" d="M9.5 5.5v-1h-4v-4h-1v4h-4v1h4v4h1v-4h4z"/>
  </symbol>
</svg>
